<svg xmlns="http://www.w3.org/2000/svg" id="icon" viewBox="0 0 512 512"><path d="M421.65,122.661a9.861,9.861,0,0,0-18.682,6.317q.591,1.748,1.13,3.5a9.86,9.86,0,1,0,18.844-5.81Q422.327,124.664,421.65,122.661Z"></path><path d="M403.2,264.908c16.742-20.867,26.5-47.636,27.485-75.373a213.68,213.68,0,0,0-.305-21.379,9.86,9.86,0,0,0-19.679,1.285c2.633,29.256-4.385,60.763-22.883,83.127-20.912,25.292-48.355,36.853-71.82,27.191-82.24-34.391-116.944,7.128-128.048,26.577a8.02,8.02,0,0,1-6.987,3.967,7.818,7.818,0,0,1-7.914-8.351c1.695-11.853-5.816-22.487-18.021-23.345l-13.451-.769a19.316,19.316,0,0,0-19.493,13.383l-4.757,14.834a8.17,8.17,0,0,1-7.147,4.248h-3.357a5.859,5.859,0,0,1-5.6-7.816,51.377,51.377,0,0,1,5.474-10.955c14.144-22.151,11.241-44.226,8.252-55.415a12.889,12.889,0,0,1,1.246-9.2c21.732,22.5,83,24.461,94.512-22.8.466-2.207,5.476-28-10.6-48.358-11.744-14.9-31.294-22.687-57.761-23.067-12.966.5-13.131,19-.157,19.719,39.047.016,53.471,21.283,49.235,47.56-4.25,22-31.293,22.632-32.4,22.582-29.18,0-34.806-17.119-35.739-21.252a97.635,97.635,0,0,0-4.486-32.837,118.645,118.645,0,0,1-6.256-26.368,29.226,29.226,0,0,1,3.517-17.7,171.87,171.87,0,0,1,38.743-47.125,109.307,109.307,0,0,1,62.123-25.628c34.189-2.893,69.029-.892,92.234,1.3,31.759,3,60.626,19.533,78.308,45.06a9.86,9.86,0,0,0,16.161-11.3c-1.458-2.084-3-4.151-4.57-6.146-21.111-26.734-53.2-43.953-88.044-47.244-24.009-2.269-60.11-4.339-95.754-1.319a128.905,128.905,0,0,0-73.25,30.27,191.538,191.538,0,0,0-43.169,52.518,48.422,48.422,0,0,0-5.87,29.735,135.673,135.673,0,0,0,7.286,30.668c2.356,7.276,6.687,28.342-.7,41.023A32.693,32.693,0,0,0,95.9,241.208c2.628,9.84,3.752,24.716-5.821,39.71A71.022,71.022,0,0,0,82.7,295.731c-6.124,16.418,6.622,34.467,24.129,34.292,11.987.887,23.474-4.993,28.6-16.077.09.666,5.2-16.358,5.342-16.4l12.734.729c-2.168,16.8,10.349,31.813,27.464,31.751a27.783,27.783,0,0,0,24.113-13.91c10.563-18.5,38.033-45.458,103.315-18.161C340.376,310.819,375.644,297.977,403.2,264.908Z"></path><path d="M93.226,439.823a33.573,33.573,0,0,0,39.072,4.613c13.022-7.245,35.982-16.213,71.419-17.792,51.22-4.407,60.166-60.2,55.4-112.556a9.861,9.861,0,1,0-19.628,1.922c4.323,48.874-4.647,88.8-36.649,90.933-39.279,1.751-65.256,11.984-80.132,20.262-11.2,6.253-24.315-5.036-19.816-16.986,4.69-12.128,4.75-26.131.179-41.62a4.774,4.774,0,0,1,4.574-6.143h1.077a8.89,8.89,0,0,1,8.748,7.663,24.558,24.558,0,0,0,48.048,2.823l1.041-3.925a8.825,8.825,0,0,1,14.871-3.873l2.022,2.088A20.24,20.24,0,0,0,216,362.413l3.937-7.655A9.86,9.86,0,0,0,202.4,345.74l-3.937,7.655a.462.462,0,0,1-.388.278.45.45,0,0,1-.451-.154c-14.992-18.1-43.883-12.395-50.126,10.442l-1.041,3.923a4.838,4.838,0,0,1-9.477-.641,28.684,28.684,0,0,0-28.258-24.507c-16.582-.859-29.474,15.541-24.565,31.445,2.277,7.713,4.184,18.992.342,28.927A33.7,33.7,0,0,0,93.226,439.823Z"></path><path d="M223.418,331.233a9.286,9.286,0,0,0,1.846-.562A9.9,9.9,0,0,0,230.6,317.8a9.8,9.8,0,0,0-5.338-5.323,9.92,9.92,0,0,0-11.973,3.619,11,11,0,0,0-.9,1.7C209.287,324.882,215.874,332.894,223.418,331.233Z"></path><path d="M295.066,356.26a8.16,8.16,0,0,1,6.23-1.3l17.162,3.312a9.86,9.86,0,1,0,3.737-19.362L305.033,335.6c-14.859-3.2-30.516,7.58-32.828,22.606a27.911,27.911,0,0,0,21.434,32.122c4.366.766,37.553,9.025,41.226,8.525A27.786,27.786,0,0,0,361.031,380.5l2.155-7.859a20.084,20.084,0,0,0-12.375-24.233c-12.442-4.106-18.976,13.4-6.924,18.466a.456.456,0,0,1,.282.551l-1.953,7.122a8.229,8.229,0,0,1-9.173,4.378l-35.1-7.845C291,369.634,289.18,360.189,295.066,356.26Z"></path><path d="M287,471.937c4.747.834,42.344,10.152,46.237,9.586a30.1,30.1,0,0,0,28.3-19.771l2.433-8.865a21.4,21.4,0,0,0-13.188-25.822,9.859,9.859,0,1,0-6.924,18.462,1.778,1.778,0,0,1,1.094,2.143l-2.235,8.148a10.556,10.556,0,0,1-11.814,5.726L291.3,452.693c-8.924-1.913-11.231-13.9-3.684-19a10.477,10.477,0,0,1,7.986-1.669l19.364,3.736a9.86,9.86,0,0,0,3.736-19.363l-19.362-3.736c-16.1-3.461-33.049,8.208-35.555,24.483A30.225,30.225,0,0,0,287,471.937Z"></path></svg>